<svg width="180" height="180" viewBox="0 0 180 180" fill="none" xmlns="http://www.w3.org/2000/svg">
<path d="M90 105.75L66.75 143.25L27.75 79.5V146.25H0V33.75H27.75L66.75 100.5V70.5L89.25 105.75H90ZM94.5 63V33.75H66.75V63H94.5ZM136.5 93.75C133.284 93.5485 130.089 94.388 127.387 96.144C124.686 97.9 122.621 100.479 121.5 103.5C123.458 100.71 126.307 98.6703 129.579 97.716C132.85 96.7617 136.35 96.9501 139.5 98.25C142.5 99.75 147 101.25 149.25 100.5C147.816 98.4405 145.911 96.7535 143.693 95.5794C141.475 94.4052 139.009 93.778 136.5 93.75ZM162 101.25C159 101.25 156 99.75 153.75 96.75L152.25 94.5C151.292 92.7787 150.02 91.2523 148.5 90C145.813 88.3178 142.662 87.5302 139.5 87.75C135.841 87.7373 132.257 88.7956 129.192 90.7947C126.127 92.7937 123.714 95.646 122.25 99C124.005 96.475 126.402 94.4649 129.195 93.1778C131.987 91.8907 135.073 91.3733 138.132 91.6792C141.192 91.9852 144.114 93.1033 146.596 94.9179C149.078 96.7325 151.03 99.1776 152.25 102C152.988 103.046 154.041 103.829 155.255 104.234C156.47 104.638 157.782 104.644 159 104.25C162.75 104.25 162 107.25 168 108V107.25C168 104.25 165.75 103.5 162 102V101.25ZM177 111C177.861 110.593 178.596 109.959 179.124 109.166C179.653 108.373 179.955 107.452 180 106.5C180 84 162 65.25 139.5 65.25C132.827 65.2376 126.254 66.8744 120.366 70.0146C114.478 73.1549 109.457 77.7015 105.75 83.25L94.5 65.25H66.75L93 105.75L67.5 146.25H94.5L105 127.5L117 145.5H143.25L120 108C119.837 107.259 119.837 106.491 120 105.75C119.996 100.507 122.027 95.4666 125.664 91.6899C129.3 87.9131 134.26 85.6942 139.5 85.5C150.75 85.5 152.25 92.25 154.5 95.25C159.75 101.25 169.5 99 169.5 106.5C169.54 107.365 169.793 108.207 170.236 108.95C170.68 109.693 171.301 110.316 172.043 110.761C172.786 111.207 173.627 111.461 174.492 111.503C175.356 111.545 176.218 111.372 177 111ZM180 112.5C178.5 114.75 175.5 114.75 174 117C173.25 119.25 174.75 120 174.75 120C174.75 120 177.75 121.5 179.25 117.75V112.5H180Z" fill="#002F56"/>
</svg>
