<svg xmlns="http://www.w3.org/2000/svg" width="256" height="300" viewBox="0 0 256 300"><title>svelte-vertical</title><path d="M44.4129,265.87a14.0218,14.0218,0,0,1-7.9891-2.2576,11.5714,11.5714,0,0,1-4.6647-6.178l4.8632-1.7867a8.97,8.97,0,0,0,3.1759,3.8459,8.3658,8.3658,0,0,0,4.8132,1.4142,7.068,7.068,0,0,0,4.59-1.3892,4.8185,4.8185,0,0,0,1.7122-3.97,4.3412,4.3412,0,0,0-.4714-2.01,6.0115,6.0115,0,0,0-1.0668-1.5138,7.2027,7.2027,0,0,0-1.8362-1.2158q-1.2411-.6192-2.0591-.9428-.819-.3216-2.4066-.8684-1.9858-.6943-2.9775-1.0912a22.4089,22.4089,0,0,1-2.6051-1.3153,9.6307,9.6307,0,0,1-2.4316-1.8357,8.9022,8.9022,0,0,1-1.4637-2.4071,8.6,8.6,0,0,1,2.3321-9.7753,11.7841,11.7841,0,0,1,8.0886-2.63,12.1677,12.1677,0,0,1,7.0213,1.8857,9.1177,9.1177,0,0,1,3.6969,5.0122l-4.7637,1.5877a5.546,5.546,0,0,0-2.3077-2.5556,7.7507,7.7507,0,0,0-4.0437-.9678,6.2321,6.2321,0,0,0-3.8953,1.0918,3.6619,3.6619,0,0,0-1.4143,3.0764,3.21,3.21,0,0,0,1.0913,2.3822,7.5015,7.5015,0,0,0,2.2826,1.5382q1.1916.4965,3.6229,1.34,1.4877.5468,2.2076.8188t2.1091.9179a14.5435,14.5435,0,0,1,2.1336,1.1663,18.7071,18.7071,0,0,1,1.7367,1.4142,7.4076,7.4076,0,0,1,1.5138,1.8112,10.1257,10.1257,0,0,1,.8928,2.2326,10.24,10.24,0,0,1,.3725,2.8041,9.3524,9.3524,0,0,1-3.325,7.6166A12.9325,12.9325,0,0,1,44.4129,265.87Zm31.807-.5954L64.31,230.5391h5.5581l7.89,24.2159a37.5389,37.5389,0,0,1,1.0919,3.97,37.2955,37.2955,0,0,1,1.0918-3.97l7.7907-24.2159h5.508l-11.86,34.7356Zm27.54,0V230.5391H125.296v4.8632H108.9208V244.93H119.49v4.8632H108.9208v10.6186h17.4665v4.8632Zm35.7774,0V230.5391h5.1612v29.7734h16.9706v4.9622ZM181.12,235.5012v29.7735h-5.1612V235.5012h-9.8248v-4.9621h24.8107v4.9621Zm20.4934,29.7735V230.5391H223.15v4.8632H206.7745V244.93h10.5691v4.8632H206.7745v10.6186h17.4664v4.8632Z" style="fill:#4a4a55"/><path d="M191.8716,52.1065c-16.3379-23.3845-48.6074-30.3158-71.9383-15.45L78.9574,62.7719A47.0092,47.0092,0,0,0,57.72,94.2591a49.5083,49.5083,0,0,0,4.882,31.7842,47.14,47.14,0,0,0-7.032,17.5683,50.097,50.097,0,0,0,8.5576,37.8858c16.3419,23.3867,48.61,30.3149,71.9383,15.45l40.9759-26.1158a47.001,47.001,0,0,0,21.2378-31.4872A49.5286,49.5286,0,0,0,193.4,107.56a47.13,47.13,0,0,0,7.0291-17.5676,50.0832,50.0832,0,0,0-8.5576-37.8857" style="fill:#ff3e00"/><path d="M115.93,183.6976A32.5485,32.5485,0,0,1,80.996,170.7485a30.1218,30.1218,0,0,1-5.1475-22.7834,28.582,28.582,0,0,1,.9792-3.8266l.7717-2.3529,2.0992,1.5418a52.8582,52.8582,0,0,0,16.029,8.0087l1.5229.4621-.14,1.52a9.1869,9.1869,0,0,0,1.6528,6.0925,9.8011,9.8011,0,0,0,10.5181,3.9039,9.0254,9.0254,0,0,0,2.5168-1.1062l40.9769-26.1128a8.5317,8.5317,0,0,0,3.85-5.7043,9.1034,9.1034,0,0,0-1.5515-6.8672,9.8084,9.8084,0,0,0-10.5221-3.9061,9.02,9.02,0,0,0-2.5138,1.1054l-15.6366,9.9678a29.8952,29.8952,0,0,1-8.3206,3.6539A32.5485,32.5485,0,0,1,83.146,121.3959a30.1208,30.1208,0,0,1-5.1475-22.7834A28.261,28.261,0,0,1,90.7712,79.68l40.9729-26.115a29.8528,29.8528,0,0,1,8.3258-3.6584A32.5482,32.5482,0,0,1,175.004,62.8556a30.1218,30.1218,0,0,1,5.1475,22.7834,28.9008,28.9008,0,0,1-.9792,3.8265l-.7717,2.353L176.3024,90.28a52.8164,52.8164,0,0,0-16.03-8.0117l-1.5229-.462.14-1.52a9.2036,9.2036,0,0,0-1.6528-6.0924A9.8011,9.8011,0,0,0,146.7189,70.29a9.0252,9.0252,0,0,0-2.5168,1.1061L103.2252,97.5085a8.5183,8.5183,0,0,0-3.847,5.7035,9.09,9.09,0,0,0,1.5485,6.8681,9.8085,9.8085,0,0,0,10.5221,3.9061,9.0586,9.0586,0,0,0,2.5168-1.1062L129.6,102.9159a29.8159,29.8159,0,0,1,8.32-3.6569,32.5484,32.5484,0,0,1,34.9341,12.9492,30.1207,30.1207,0,0,1,5.1475,22.7834A28.275,28.275,0,0,1,165.23,153.9271l-40.9738,26.112a29.8538,29.8538,0,0,1-8.3257,3.6585" style="fill:#fff"/></svg>
