<?xml version="1.0" encoding="UTF-8"?>
<svg id="b" data-name="Layer 2" xmlns="http://www.w3.org/2000/svg" viewBox="0 0 642.99 193.54">
  <g id="c" data-name="Layer 1">
    <g>
      <path d="M36.1,131.58c-7.51-31.06-13.57-54.78-18.18-71.17-1.54-5.46-3.54-9.47-6.02-12.03-2.48-2.56-5.93-4.01-10.37-4.35l-1.54-2.05,2.05-17.41c2.22,0,6.48.09,12.8.26,6.31.17,12.8.26,19.46.26,9.04,0,18-.26,26.88-.77,8.87-.51,14.59-.85,17.15-1.02l1.54,2.3-1.28,17.92c-5.8.68-9.86,1.28-12.16,1.79-2.3.51-3.84,1.28-4.61,2.3s-1.15,2.73-1.15,5.12c0,4.27,2.64,19.63,7.94,46.08,5.29,26.46,8.96,44.38,11.01,53.76h4.1c1.7-4.61,5.33-17.02,10.88-37.25,5.54-20.22,10.11-37.67,13.7-52.35,0-1.36-.26-4.35-.77-8.96-.51-3.75-1.96-6.31-4.35-7.68-2.39-1.36-6.66-2.13-12.8-2.3l-1.28-2.05,2.05-17.41c2.73,0,7.81.09,15.23.26,7.42.17,14.89.26,22.4.26,8.7,0,17.58-.26,26.62-.77,9.04-.51,14.85-.85,17.41-1.02l1.54,2.3-1.54,17.92c-5.8.68-9.86,1.28-12.16,1.79-2.3.51-3.8,1.28-4.48,2.3-.68,1.02-1.02,2.73-1.02,5.12,0,4.1,2.6,19.37,7.81,45.82,5.2,26.46,8.83,44.46,10.88,54.02h4.35c2.22-6.14,7.21-23.76,14.98-52.86,7.76-29.1,11.65-45.52,11.65-49.28,0-2.39-.73-4.01-2.18-4.86-1.45-.85-4.22-1.28-8.32-1.28h-8.45l-1.28-2.05,1.79-18.18c2.39.17,7.59.38,15.62.64,8.02.26,15.19.38,21.5.38,6.82,0,12.97-.08,18.43-.26,5.46-.17,9.13-.26,11.01-.26l-1.79,19.2c-3.42.86-5.89,2.14-7.42,3.84-1.54,1.71-3.07,4.95-4.61,9.73l-40.96,131.58-52.22,4.61c-2.56-17.24-8.36-45.14-17.41-83.71h-3.07l-22.27,79.1-52.22,4.61c-2.39-10.24-7.34-30.89-14.85-61.95Z" stroke-width="0"/>
      <path d="M318.03,188.16c-4.61-3.24-7.26-8.02-7.94-14.34l-2.56-1.02c-5.29,5.29-10.54,9.82-15.74,13.57-5.21,3.75-9.43,5.63-12.67,5.63-6.66,0-12.76-1.75-18.3-5.25-5.55-3.5-9.9-8.32-13.06-14.46-3.16-6.14-4.74-12.88-4.74-20.22,0-5.46,1.45-10.2,4.35-14.21,2.9-4.01,6.66-6.53,11.26-7.55l49.66-10.5v-3.58c0-6.66-1.88-11.82-5.63-15.49-3.76-3.67-9.05-5.5-15.87-5.5-4.44,0-9.39,1.15-14.85,3.46-5.46,2.3-10.41,4.99-14.85,8.06l-2.56-1.28-5.38-17.66c9.38-5.12,18.94-9.77,28.67-13.95,9.73-4.18,16.72-6.27,20.99-6.27,16.04,0,27.78,3.33,35.2,9.98,7.42,6.66,11.14,15.28,11.14,25.86,0,2.39-.86,10.24-2.56,23.55-.17,2.05-.68,6.23-1.54,12.54-.86,6.32-1.28,10.75-1.28,13.31,0,2.9.77,5.25,2.3,7.04,1.54,1.79,3.58,2.69,6.14,2.69,3.24,0,6.82-1.11,10.75-3.33l4.1,5.89c-3.42,6.32-7.6,12.29-12.54,17.92-4.95,5.63-9.47,8.96-13.57,9.98-8.02,0-14.34-1.62-18.94-4.86ZM299.21,162.43c2.98-.94,5.67-2.09,8.06-3.46l.51-23.04-23.3,5.89c-2.05.51-3.5,1.32-4.35,2.43-.86,1.11-1.28,2.69-1.28,4.74,0,4.27,1.15,7.81,3.46,10.62s5.33,4.22,9.09,4.22c2.22,0,4.82-.47,7.81-1.41Z" stroke-width="0"/>
      <path d="M378.47,168.32c1.45-2.3,2.18-6.53,2.18-12.67V40.45c0-4.26-.43-7.46-1.28-9.6-.86-2.13-2.39-3.54-4.61-4.22-1.71-.34-3.93-.51-6.66-.51h-5.12c-.17-.34-.3-.77-.38-1.28-.08-.51-.21-.94-.38-1.28l1.54-14.85c10.92-1.36,22.61-2.98,35.07-4.86,12.46-1.88,20.56-3.16,24.32-3.84l2.05,5.63c-2.73,2.73-4.82,18.14-6.27,46.21-1.45,28.08-2.18,64.81-2.18,110.21,0,3.76.51,6.36,1.54,7.81,1.02,1.45,2.82,2.18,5.38,2.18l5.63-.26.51,1.54-3.07,17.92c-2.05-.17-6.44-.43-13.18-.77-6.74-.34-12.25-.51-16.51-.51-5.63,0-11.61.17-17.92.51-6.32.34-10.41.6-12.29.77l2.3-18.43c4.78-.68,7.89-2.18,9.34-4.48ZM420.32,123.39l21.5-23.04c1.88-1.88,3.16-3.46,3.84-4.74.68-1.28,1.02-2.52,1.02-3.71,0-1.88-.98-3.2-2.94-3.97-1.96-.77-5.34-1.15-10.11-1.15l-.77-1.28,2.3-15.36c2.05,0,6.23.09,12.54.26,6.31.17,13.31.26,20.99.26,5.29,0,10.96-.13,17.02-.38,6.06-.26,10.02-.47,11.9-.64l.77,1.28-2.3,17.66c-5.98,2.56-11.78,6.23-17.41,11.01-5.63,4.78-12.12,10.92-19.46,18.43l-4.1,4.1,19.2,32.77c3.24,5.63,6.78,9.86,10.62,12.67s8.15,4.57,12.93,5.25l1.28,2.56-2.05,15.36c-1.2.17-3.84.6-7.94,1.28-4.1.68-7.6,1.11-10.5,1.28l-6.14.26c-2.22,0-4.35-.17-6.4-.51-5.12-.86-9.34-2.73-12.67-5.63s-6.87-7.76-10.62-14.59l-23.3-42.5.77-6.91Z" stroke-width="0"/>
      <path d="M516.27,96c-1.2-1.7-3.24-2.56-6.14-2.56-1.54,0-2.94.09-4.22.26-1.28.17-2.09.26-2.43.26l1.79-17.66c10.07-1.36,20.39-2.98,30.98-4.86,10.58-1.88,17.41-3.16,20.48-3.84l2.82,4.86c-1.88,4.1-3.5,13.02-4.86,26.75-1.37,13.74-2.05,28.29-2.05,43.65,0,12.46,4.61,18.69,13.82,18.69,2.56,0,5.2-.6,7.94-1.79,2.73-1.19,5.97-2.98,9.73-5.38v-48.9c0-4.78-.64-7.89-1.92-9.34-1.28-1.45-4.06-2.26-8.32-2.43h-3.58l2.56-17.41c10.07-1.19,20.44-2.69,31.1-4.48,10.66-1.79,17.54-2.94,20.61-3.46l3.07,4.86c-2.22,3.93-4.06,13.53-5.5,28.8-1.45,15.28-2.18,32.22-2.18,50.82,0,2.9.77,5.25,2.3,7.04s3.58,2.69,6.14,2.69c2.22,0,4.52-.51,6.91-1.54,2.39-1.02,3.58-1.62,3.58-1.79l4.1,5.89c-.68,1.2-2.48,3.76-5.38,7.68-2.9,3.93-6.49,7.94-10.75,12.03-4.27,4.1-8.45,6.82-12.54,8.19-16.38,0-25.6-6.4-27.65-19.2l-2.3-1.28c-5.98,6.14-11.26,11.05-15.87,14.72-4.61,3.67-7.77,5.5-9.47,5.5-14,0-24.62-2.86-31.87-8.58-7.26-5.72-10.88-13.95-10.88-24.7l1.79-54.53c0-4.26-.6-7.25-1.79-8.96Z" stroke-width="0"/>
    </g>
  </g>
</svg>