<svg width="310px" height="54px" viewBox="0 0 310 54" version="1.1" xmlns="http://www.w3.org/2000/svg" xmlns:xlink="http://www.w3.org/1999/xlink" xmlns:sketch="http://www.bohemiancoding.com/sketch/ns">
    <!-- Generator: Sketch 3.0.1 (7597) - http://www.bohemiancoding.com/sketch -->
    <title>logo</title>
    <description>Created with Sketch.</description>
    <defs/>
    <g id="Page-1" stroke="none" stroke-width="1" fill="none" fill-rule="evenodd" sketch:type="MSPage">
        <g id="roots" sketch:type="MSLayerGroup">
            <g id="Group" transform="translate(56.000000, 0.000000)" fill="#3E444D" sketch:type="MSShapeGroup">
                <path d="M30.2145034,53 L18.5570993,33.5875734 L9.27825902,33.5875734 L9.27825902,53 L0,53 L0,1 L23.2357553,1 C33.7038775,1 40.6029914,7.62700279 40.6029914,17.2940724 C40.6029914,26.4931317 34.4170979,31.5612431 27.9940455,32.5744082 L41,53 L30.2145034,53 L30.2145034,53 Z M31,17.4197697 C31,12.2879715 27.1603497,9 21.879951,9 L9,9 L9,26 L21.879951,26 C27.1603497,26 31,22.6315043 31,17.4197697 L31,17.4197697 Z" id="Shape"/>
                <path d="M49,26.9997132 C49,11.4258459 59.9572675,0 75.5,0 C90.9646941,0 102,11.4258459 102,26.9997132 C102,42.5741541 90.9646941,54 75.5,54 C59.9572675,54 49,42.5741541 49,26.9997132 L49,26.9997132 Z M92,27 C92,16.1208978 85.3078058,8 75.0002819,8 C64.6155122,8 58,16.1208978 58,27 C58,37.8010888 64.6155122,46 75.0002819,46 C85.307242,45.9994221 92,37.8010888 92,27 L92,27 Z" id="Shape"/>
                <path d="M110,26.9997132 C110,11.4258459 120.957268,0 136.5,0 C151.964694,0 163,11.4258459 163,26.9997132 C163,42.5741541 151.964694,54 136.5,54 C120.957268,54 110,42.5741541 110,26.9997132 L110,26.9997132 Z M153,27 C153,16.1208978 146.307806,8 135.999718,8 C125.614948,8 119,16.1208978 119,27 C119,37.8010888 125.614948,46 135.999718,46 C146.307806,45.9994221 153,37.8010888 153,27 L153,27 Z" id="Shape"/>
                <path d="M183.896664,53 L183.896664,9.02989077 L168,9.02989077 L168,1 L209,1 L209,9.02989077 L193.103336,9.02989077 L193.103336,53 L183.896664,53 L183.896664,53 Z" id="Shape"/>
                <path d="M213,45.7045307 L218.105508,38.5821639 C221.587052,42.4175493 227.234071,45.860562 234.427939,45.860562 C241.854855,45.860562 244.717206,42.1823551 244.717206,38.6607532 C244.717206,27.7041483 214.701647,34.5133054 214.701647,15.3386732 C214.701647,6.65197854 222.128563,0 233.499716,0 C241.467576,0 248.042817,2.66056196 252.762181,7.35641366 L247.656672,14.1649971 C243.556502,10.0175493 238.063714,8.1388644 232.648609,8.1388644 C227.388303,8.1388644 223.985008,10.8 223.985008,14.6348117 C223.985008,24.4171668 254,18.3910342 254,37.8002868 C254,46.4869815 247.889153,54 234.041794,54 C224.525952,54 217.641114,50.5569873 213,45.7045307 L213,45.7045307 Z" id="Shape"/>
            </g>
            <path d="M0,28 L0,2 L10,2 L10,28 L0,28 L0,28 Z" id="Shape" fill="#E77552" sketch:type="MSShapeGroup"/>
            <path d="M30,19 L30,2 L40,2 L40,19 L30,19 L30,19 Z" id="Shape" fill="#B6DDDA" sketch:type="MSShapeGroup"/>
            <path d="M20,39 L20,2 L30,2 L30,38.9994267 L20,38.9994267 L20,39 Z" id="Shape" fill="#9BAABF" sketch:type="MSShapeGroup"/>
            <path d="M10,53 L10,2 L20,2 L20,53 L10,53 L10,53 Z" id="Shape" fill="#3E444D" sketch:type="MSShapeGroup"/>
        </g>
    </g>
</svg>
