<svg width="180" height="180" viewBox="0 0 180 180" fill="none" xmlns="http://www.w3.org/2000/svg">
<path d="M55.1641 141.318C53.7309 141.318 53.0142 139.409 53.0142 135.577V40.9379C53.0142 39.109 52.648 38.2502 51.8995 38.3616L45.0358 40.0791C43.7778 40.1904 43.1567 38.9341 43.1567 36.3101V28.0882C43.1567 25.8141 43.8415 24.5259 45.211 24.2397L67.8563 18.4192C68.0315 18.3714 68.2863 18.3396 68.6207 18.3396C69.8788 18.3396 70.4999 19.6755 70.4999 22.3631V135.593C70.4999 139.425 69.7514 141.334 68.2704 141.334L55.1641 141.318ZM113.816 141.493C111.523 141.493 109.548 141.334 107.86 141.016C106.172 140.698 104.42 139.982 102.589 138.869C100.757 137.756 99.2604 136.229 98.0819 134.289C96.9035 132.349 95.948 129.629 95.2154 126.146C94.4829 122.664 94.1007 118.529 94.1007 113.726V69.8019C94.1007 68.6569 93.7822 68.0843 93.1611 68.0843H87.8422C86.4089 68.0843 85.6923 66.7167 85.6923 63.9814V59.3536C85.6923 56.5546 86.4089 55.1552 87.8422 55.1552H93.1611C93.7822 55.1552 94.1007 54.3918 94.1007 52.8492L95.6454 19.5324C95.8206 16.5108 96.5531 15 97.8749 15H106.458C107.892 15 108.608 16.5108 108.608 19.5324V52.8492C108.608 54.3918 108.943 55.1552 109.643 55.1552H120.584C122.017 55.1552 122.734 56.5546 122.734 59.3536V63.9814C122.734 66.7167 122.017 68.0843 120.584 68.0843H109.612C109.213 68.0843 108.943 68.1798 108.799 68.3865C108.656 68.5773 108.592 69.0544 108.592 69.8019V113.996C108.592 117.304 108.799 120.071 109.229 122.266C109.659 124.461 110.28 126.083 111.109 127.101C111.937 128.118 112.765 128.818 113.593 129.152C114.421 129.502 115.44 129.661 116.635 129.661H122.718C124.263 129.661 125.027 130.726 125.027 132.826V137.962C125.027 140.3 124.199 141.477 122.543 141.477L113.816 141.493ZM146.733 151.766C148.039 151.766 149.185 150.701 150.157 148.554C151.128 146.407 151.622 143.369 151.622 139.425C151.622 138.503 151.048 135.338 149.902 129.915L133.085 60.1169C132.974 59.3218 132.91 58.6856 132.91 58.2245C132.91 56.173 133.34 55.1393 134.2 55.1393H144.583C145.379 55.1393 146.032 55.4096 146.558 55.9503C147.083 56.491 147.481 57.5883 147.752 59.2423L158.899 118.163C159.122 118.847 159.266 119.197 159.329 119.197C159.552 119.197 159.68 118.879 159.68 118.258L168.423 59.4967C168.646 57.7792 169.012 56.6342 169.49 56.0298C169.967 55.4255 170.588 55.1234 171.337 55.1234H178.535C179.506 55.1234 180 56.2366 180 58.463C180 58.9719 179.936 59.6398 179.825 60.435L164.553 139.839C163.358 146.407 162.037 151.432 160.603 154.915C159.17 158.398 157.578 160.767 155.794 162.024C153.701 163.375 151.247 164.062 148.755 163.996H147.895C143.261 163.996 140.124 162.771 138.468 160.306C138.006 159.797 137.783 158.477 137.783 156.362C137.783 152.132 138.468 150.017 139.837 150.017C139.949 150.017 140.984 150.303 142.927 150.876C144.901 151.48 146.159 151.766 146.733 151.766ZM12.0074 141.477C10.5742 141.477 9.85756 139.569 9.85756 135.736V41.0969C9.85756 39.268 9.49129 38.4093 8.74281 38.5206L1.87915 40.2381C0.621074 40.3494 0 39.0931 0 36.4691V28.2472C0 25.9731 0.684774 24.685 2.05432 24.3987L24.7156 18.5623C24.8907 18.5146 25.1455 18.4828 25.48 18.4828C26.738 18.4828 27.3591 19.8186 27.3591 22.5062V135.736C27.3591 139.569 26.6106 141.477 25.1296 141.477H12.0074Z" fill="white"/>
</svg>
