<svg width="180" height="180" viewBox="0 0 180 180" fill="none" xmlns="http://www.w3.org/2000/svg">
<g clip-path="url(#clip0_1_34)">
<path d="M89.9284 31.4431C57.6797 31.4431 31.4426 57.6802 31.4426 89.9291C31.4426 122.178 57.6797 148.415 89.9284 148.415C122.177 148.415 148.415 122.178 148.415 89.9291C148.415 57.6802 122.177 31.4431 89.9284 31.4431ZM89.9284 120.196C73.2104 120.196 59.6616 106.647 59.6616 89.9291C59.6616 73.211 73.2104 59.6623 89.9284 59.6623C106.647 59.6623 120.195 73.211 120.195 89.9291C120.195 106.647 106.647 120.196 89.9284 120.196Z" fill="black"/>
<path fill-rule="evenodd" clip-rule="evenodd" d="M94.8303 21.837V0C142.294 2.53766 180 41.8333 180 89.9291C180 138.025 142.294 177.31 94.8303 179.858V158.021C130.205 155.494 158.217 125.936 158.217 89.9291C158.217 53.9226 130.205 24.3637 94.8303 21.837ZM38.3481 134.583C28.9707 123.757 22.9261 109.969 21.8479 94.8302H0C1.13269 116.014 9.60609 135.237 22.8825 150.038L38.3372 134.583H38.3481ZM85.0282 179.858V158.021C69.8785 156.943 56.0901 150.909 45.2642 141.521L29.8095 156.976C44.6216 170.263 63.8447 178.726 85.0173 179.858H85.0282Z" fill="url(#paint0_linear_1_34)"/>
</g>
<defs>
<linearGradient id="paint0_linear_1_34" x1="98.3599" y1="12.646" x2="9.83568" y2="101.17" gradientUnits="userSpaceOnUse">
<stop stop-color="#0096FF"/>
<stop offset="1" stop-color="#FF1E56"/>
</linearGradient>
<clipPath id="clip0_1_34">
<rect width="180" height="180" fill="white"/>
</clipPath>
</defs>
</svg>
