<svg width="29" height="26" viewBox="0 0 29 26" fill="none" xmlns="http://www.w3.org/2000/svg"><path d="M18.384 16.32l.397.641c.534.865 1.08 1.757 1.765 2.882l1.553 2.552c1.19 1.95 1.651 2.677 1.878 2.908 1.225 1.25 2.965.71 3.972-.752.698-1.013.978-1.84.978-2.79 0-.352-.294-.946-1.574-3.397-.855-1.637-2.029-3.84-3.32-6.235-2.634-4.882-5.068-9.287-5.536-10C17.38.424 16.837.055 15.07 0h-1.224c-1.767.056-2.31.425-3.427 2.128C9.348 3.761.415 20.304.043 21.438a.87.87 0 00-.043.271v.352a.87.87 0 00.003.071c.066.799.359 1.54.964 2.419 1.007 1.462 2.746 2.001 3.972.752.226-.23.687-.958 1.878-2.908l1.553-2.552a545.43 545.43 0 012.162-3.524c1.697-2.735 3-4.739 3.926-6.001.931 1.272 2.233 3.273 3.926 6.001zM1.772 21.87c.74-1.716 9.166-17.31 10.132-18.784.823-1.255.877-1.294 1.984-1.33h1.14c1.107.036 1.16.075 1.983 1.33.426.648 2.87 5.072 5.459 9.87a556.427 556.427 0 013.31 6.216c.457.874.816 1.575 1.063 2.074.124.251.219.449.281.587l.008.014c.008.011.024.016.024-.087 0 .582-.165 1.068-.67 1.8-.455.66-.95.814-1.239.519-.074-.076-.654-.99-1.632-2.594-.305-.498-1.52-2.495-1.552-2.55a549.525 549.525 0 00-2.17-3.536c-1.727-2.782-3.052-4.82-4.013-6.129-.694-.971-2.151-.971-2.851.01-.954 1.3-2.28 3.337-4.006 6.12l-.4.644c-.535.869-1.083 1.764-1.77 2.892l-1.552 2.55c-.979 1.602-1.558 2.517-1.633 2.593-.29.295-.783.142-1.238-.518-.431-.626-.614-1.078-.658-1.539v-.151z" fill="#000"/></svg>