<svg width="180" height="180" viewBox="0 0 180 180" fill="none" xmlns="http://www.w3.org/2000/svg">
<path d="M94.5719 83.989C94.9316 83.989 95.2723 84.1514 95.4986 84.4311C95.6968 84.6756 95.7892 84.987 95.7591 85.2967L95.7387 85.4292L91.6875 104.537C91.5328 105.271 91.4541 105.951 91.4541 106.556L91.4574 106.786L91.4686 107.015C91.4712 107.053 91.4742 107.091 91.4775 107.129L91.5032 107.355C91.7005 108.781 92.592 110.035 95.9007 110.035C97.9521 110.035 99.9625 109.355 101.876 108.014C103.674 106.753 104.756 105.325 105.176 103.655L105.234 103.403L109.189 84.9323C109.298 84.4216 109.725 84.046 110.236 83.995L110.355 83.989H116.838C117.152 83.989 117.452 84.1135 117.674 84.332L117.764 84.4313C117.963 84.6754 118.055 84.9867 118.025 85.2965L118.005 85.429L111.652 115.393C111.544 115.905 111.117 116.281 110.605 116.332L110.486 116.338H104.004C103.643 116.338 103.302 116.175 103.076 115.895C102.878 115.65 102.786 115.338 102.817 115.028L102.838 114.895L102.961 114.32C100.317 116.033 96.7609 116.898 92.3355 116.898C89.3398 116.898 86.943 116.096 85.2115 114.516C83.4483 112.907 82.5542 110.634 82.5542 107.76C82.5542 106.909 82.644 105.991 82.8215 105.025L82.903 104.608L86.9213 84.943C87.0266 84.4275 87.4553 84.0468 87.9697 83.995L88.0898 83.989H94.5719ZM135.177 83.4276C137.724 83.4276 140.781 84.0897 144.268 85.3965L144.747 85.5787C145.069 85.7034 145.322 85.9616 145.439 86.2868C145.541 86.5713 145.531 86.8822 145.414 87.1575L145.358 87.2732L142.603 92.1972C142.432 92.5023 142.136 92.7172 141.793 92.7848C141.451 92.8542 141.094 92.7672 140.821 92.5495C138.902 91.0289 136.908 90.2898 134.723 90.2898C133.333 90.2898 132.13 90.5935 131.147 91.1924C130.088 91.8378 129.953 92.5047 129.953 93.0138C129.953 93.5345 130.149 93.9576 130.571 94.3451L130.692 94.451L130.838 94.5695L131.013 94.7008L131.218 94.8448L131.458 95.0016L131.733 95.1712C131.782 95.2005 131.833 95.2304 131.885 95.2608L132.219 95.4497L132.595 95.6516L133.015 95.8664L133.483 96.0942L138.276 98.3402C139.87 99.0814 141.091 100.068 141.902 101.272C142.726 102.494 143.143 103.848 143.143 105.296C143.143 108.903 141.613 111.793 138.595 113.886C135.715 115.883 132.034 116.896 127.657 116.896C123.822 116.896 120.327 116.057 117.27 114.403C116.978 114.245 116.766 113.973 116.683 113.653C116.612 113.378 116.641 113.089 116.763 112.836L116.831 112.713L120.04 107.677C120.226 107.384 120.53 107.188 120.873 107.137C121.214 107.087 121.564 107.188 121.825 107.414C122.56 108.049 123.663 108.651 125.103 109.204C126.536 109.755 127.755 110.034 128.727 110.034C130.387 110.034 131.757 109.657 132.798 108.913C133.74 108.241 134.178 107.393 134.178 106.247C134.178 105.965 134.115 105.531 133.568 105.02L133.449 104.914L133.305 104.794L133.132 104.661L132.928 104.514L132.691 104.353L132.418 104.179L132.107 103.99L131.756 103.787L131.362 103.57L130.922 103.338L130.434 103.091L125.88 100.917C124.278 100.13 123.058 99.112 122.241 97.8856C121.409 96.6378 120.987 95.2811 120.987 93.8532C120.987 90.6659 122.429 88.0786 125.274 86.1632C127.969 84.3482 131.301 83.4276 135.177 83.4276ZM78.236 83.4321C78.4015 83.4321 78.5826 83.4374 78.7799 83.4481L79.1963 83.4768C79.2694 83.4827 79.3443 83.4893 79.421 83.4965L79.9041 83.5469L80.4328 83.6119C80.5248 83.624 80.6188 83.6367 80.7146 83.65L81.3138 83.7372L81.961 83.8393C82.304 83.8954 82.6054 84.0983 82.7867 84.3949C82.945 84.6546 82.9976 84.9633 82.9368 85.258L82.9039 85.3833L81.1536 90.8108C81.0377 91.1698 80.759 91.4531 80.4018 91.5742C80.0449 91.6958 79.6513 91.6412 79.3405 91.4263C78.238 90.665 76.9756 90.2951 75.481 90.2951C73.5804 90.2951 71.7916 91.0535 70.0125 92.6146C68.2989 94.1179 67.2255 95.8452 66.7391 97.8857L66.6672 98.2105L63.1344 115.389C63.0284 115.904 62.6 116.284 62.086 116.335L61.966 116.341H55.8081C55.4498 116.341 55.1105 116.18 54.884 115.903C54.6857 115.66 54.5922 115.35 54.6201 115.042L54.6395 114.91L60.765 84.9459C60.8703 84.4304 61.299 84.0497 61.8134 83.9979L61.9335 83.9919H68.0915C68.4494 83.9919 68.7885 84.1529 69.0151 84.4302C69.2133 84.6724 69.3071 84.9819 69.2796 85.2903L69.2604 85.4222L69.0485 86.465C71.6998 84.4502 74.7768 83.4321 78.236 83.4321ZM177.056 85.9976C175.143 84.2933 172.471 83.4291 169.117 83.4291C167.039 83.4291 164.92 83.8261 162.818 84.6096C161.932 84.9394 161.125 85.3086 160.4 85.7152L162.706 73.1146C162.77 72.7662 162.675 72.4079 162.449 72.1359C162.222 71.864 161.887 71.7068 161.533 71.7068H155.407C154.839 71.7068 154.349 72.1081 154.238 72.6655L145.779 114.911C145.708 115.262 145.799 115.625 146.026 115.901C146.252 116.178 146.591 116.338 146.948 116.338H153.236C153.802 116.338 154.29 115.94 154.404 115.385L158.899 93.4807C159.78 92.6739 160.924 91.9472 162.304 91.3162C163.792 90.6363 165.212 90.2914 166.524 90.2914C170.004 90.2914 170.922 91.7496 171.118 93.398L171.142 93.6465C171.149 93.7297 171.154 93.8132 171.157 93.8969L171.164 94.1483C171.164 94.1902 171.165 94.2321 171.165 94.274C171.165 94.8053 171.096 95.413 170.962 96.0771L167.105 114.906C167.033 115.256 167.123 115.621 167.35 115.899C167.576 116.176 167.915 116.338 168.274 116.338H174.626C175.193 116.338 175.681 115.939 175.795 115.384L179.653 96.5492C179.883 95.3957 180 94.2913 180 93.2661C180 90.2966 179.081 87.9185 177.269 86.193L177.056 85.9976Z" fill="#C95228"/>
<path d="M48.1185 80.6249C46.7731 78.9944 44.8734 77.9855 42.7691 77.784C40.6647 77.5822 38.6081 78.2125 36.9775 79.5578C36.1216 80.2641 35.4389 81.1243 34.9525 82.0856L33.0415 81.3294C33.5584 80.5848 34.236 79.8056 35.0116 79.0832C36.6193 77.586 38.385 76.5778 39.8562 76.3171C39.9541 76.2997 40.0406 76.243 40.0954 76.1599C40.1934 76.0115 40.348 75.8418 40.4843 75.6921C40.7821 75.365 41.0634 75.0561 40.7938 74.7515C40.7248 74.6735 40.6259 74.6292 40.5224 74.6292C40.5152 74.6292 40.5077 74.6295 40.5004 74.6299C37.9461 74.7856 34.319 75.9838 31.7996 78.8802C31.3382 79.4107 30.945 79.9006 30.6124 80.3681L23.1682 77.4223C22.747 76.8813 22.1553 76.4695 21.8059 76.4384C21.7496 76.4329 21.6755 76.4517 21.5896 76.4865C21.7726 76.0273 21.9522 75.4808 22.0709 74.824C22.2923 73.5992 22.3214 72.5721 22.6726 72.4914C23.3217 72.3422 23.2512 72.6739 23.3812 72.1992C23.5751 71.4916 22.6491 70.6534 22.9193 70.0446C23.1186 69.5952 23.3144 69.2706 23.4909 69.0277C24.1477 69.1529 24.7249 69.2574 25.2884 69.626C25.8811 69.0769 26.3763 68.2596 26.2659 67.6444C26.1521 67.0106 24.9266 67.041 25.1794 65.9007C25.3454 65.1515 26.4043 64.9237 27.0751 64.9376C27.4473 64.9448 27.326 63.3333 26.8817 63.0778C26.321 62.7554 21.4022 61.0483 19.7436 62.7294C18.8162 63.6694 18.3711 66.1721 19.4301 67.0788C19.5507 67.182 19.6681 67.2773 19.7841 67.369C19.6329 67.4584 19.4679 67.5338 19.2064 67.5601C18.6304 67.6181 18.3105 67.3663 18.0618 67.5702C17.8095 67.7768 18.2427 68.0327 18.0478 68.3695C17.6918 68.9849 17.3641 68.1426 16.1948 69.2998C15.6514 69.8376 15.5156 70.8673 14.9787 72.1575C14.116 74.2306 13.3595 73.8318 12.3662 77.0247C12.1229 77.807 13.1612 77.4225 15.0873 78.3658C14.1483 80.1437 13.54 81.8277 13.8272 82.8812C14.1809 84.178 16.6923 86.1997 17.9955 87.3517C18.0832 87.4292 18.1766 87.5279 18.2752 87.6426C14.6888 91.1332 8.44028 93.6985 0.103355 99.9272C-0.289323 100.562 0.537431 101.613 0.905876 101.687C5.81087 97.5482 11.7106 96.2179 17.8138 96.6555C17.0087 97.1588 16.3032 97.5811 15.7222 97.9243L16.0294 97.139L13.9344 97.7871L4.25063 100.833L3.09502 102.166L3.65086 103.725L5.38946 104.026L14.8091 100.259L14.8987 100.03C17.944 99.1685 18.508 99.9744 18.8463 100.9L17.3528 102.493C14.7645 101.483 11.718 101.863 9.42706 103.754C6.06133 106.531 5.58251 111.529 8.35997 114.894C9.92272 116.788 12.1884 117.768 14.4709 117.768C16.2449 117.768 18.0291 117.176 19.501 115.961C21.1315 114.616 22.1404 112.716 22.342 110.612C22.5187 108.766 22.0557 106.958 21.0316 105.441L23.5309 102.411C23.6444 102.445 23.75 102.456 23.8461 102.44C24.2018 102.383 24.7307 101.985 25.335 101.39C25.4514 101.61 25.6869 101.75 25.9437 101.726C26.2869 101.693 26.5381 101.38 26.5046 101.026C26.493 100.902 26.4469 100.792 26.3794 100.699C27.5119 100.875 28.4318 100.913 28.5078 100.655C28.8201 99.5999 28.2333 99.1443 27.5235 98.8347C27.9193 98.3136 28.3024 97.7795 28.6511 97.2645C29.9058 96.0891 30.834 94.997 30.9824 94.3285C31.2911 92.9367 30.1278 90.7497 29.0143 89.4915C29.0953 88.6554 29.1933 87.6964 29.2869 86.7409C29.4417 87.4685 29.7582 88.3779 30.0927 89.3342C30.2874 89.891 30.4888 90.4668 30.655 91.0025C30.6951 91.1317 30.8038 91.2278 30.937 91.2518C30.9584 91.2555 30.9799 91.2573 31.0013 91.2573C31.1124 91.2573 31.2189 91.2061 31.2883 91.1162C31.3516 91.034 31.4293 90.967 31.5114 90.896C31.7435 90.6956 32.0942 90.3927 31.8588 89.7522C30.8444 86.9926 31.6131 84.6413 31.9826 83.5112C32.0283 83.3713 32.0678 83.2504 32.0996 83.1435C32.1157 83.0893 32.1351 83.0334 32.1546 82.9775L34.3323 83.7539C34.2399 84.1295 34.1741 84.5144 34.1365 84.9065C33.935 87.0109 34.5651 89.0676 35.9105 90.6981C37.2559 92.3286 39.1556 93.3374 41.2598 93.5391C41.5171 93.5637 41.7736 93.5759 42.0287 93.5759C43.8605 93.5759 45.6204 92.9462 47.0514 91.7652C48.6818 90.4198 49.6908 88.52 49.8925 86.4158C50.094 84.3114 49.4639 82.2547 48.1185 80.6242L48.1185 80.6249ZM23.7011 81.7565C22.8072 82.07 22.0013 82.4991 21.4496 83.0449C20.6893 82.3072 20.0948 81.7657 19.9335 81.4741C19.9962 81.4695 20.0516 81.4516 20.0993 81.4167C20.3549 81.23 20.1276 80.7755 20.4539 80.5244C20.9875 80.1136 21.933 81.0697 22.5481 80.6914C22.8273 80.5196 22.9849 80.1051 22.9836 79.7086L24.5488 80.2666L23.7011 81.7565ZM17.1786 98.4631C17.7325 98.1295 18.3615 97.7429 19.0489 97.3051C19.3995 97.8383 19.8733 98.537 20.3956 99.2473L19.7401 99.9465C19.3221 99.1474 18.6283 98.5001 17.1786 98.4631ZM20.708 102.62C20.7765 102.609 20.847 102.596 20.9212 102.577C21.3465 102.471 21.9303 102.2 22.6037 101.816C22.6361 101.845 22.6683 101.872 22.7002 101.899L20.4259 104.657C20.1663 104.359 19.889 104.085 19.5964 103.835L20.708 102.62ZM18.8911 106.205C18.9344 106.257 18.9754 106.311 19.0167 106.365L16.7111 109.16C16.623 108.876 16.4803 108.604 16.2792 108.36C16.1471 108.2 15.9968 108.064 15.8358 107.949L18.1279 105.442C18.4008 105.668 18.6573 105.922 18.8911 106.205ZM20.1774 110.405C20.0312 111.931 19.2995 113.309 18.1171 114.284C15.6762 116.298 12.0518 115.951 10.0378 113.51C8.02368 111.07 8.37091 107.445 10.8117 105.431C11.8793 104.55 13.1727 104.121 14.4594 104.121C14.8766 104.121 15.2931 104.166 15.7008 104.256L12.2251 107.964L12.578 108.455C11.9463 109.304 11.9462 110.503 12.6497 111.355C13.4767 112.357 14.9597 112.5 15.9619 111.673C16.2625 111.424 16.4841 111.117 16.627 110.781L19.563 107.222C20.0676 108.193 20.2842 109.289 20.1774 110.405ZM47.7279 86.2091C47.5818 87.735 46.8501 89.1127 45.6677 90.0885C44.4852 91.0642 42.9944 91.5207 41.4677 91.3749C39.9418 91.2286 38.5641 90.497 37.5884 89.3146C36.6127 88.1322 36.1559 86.6406 36.302 85.1147C36.3222 84.9035 36.3548 84.6954 36.3971 84.4906L39.6625 85.6548C39.6607 86.1848 39.8365 86.7186 40.2003 87.1594C41.0273 88.1617 42.5103 88.3037 43.5125 87.4767C44.5148 86.6496 44.6569 85.1666 43.8298 84.1644C43.0027 83.1621 41.5198 83.0201 40.5175 83.8471C40.4003 83.9438 40.2961 84.0502 40.2026 84.163L36.9875 82.8907C37.3324 82.2653 37.7948 81.7036 38.3624 81.2353C39.4002 80.3788 40.6763 79.9221 42.0047 79.9221C42.1897 79.9221 42.3758 79.9312 42.5623 79.9489C44.0883 80.0951 45.466 80.8268 46.4417 82.0091C47.4173 83.1915 47.8741 84.6831 47.7279 86.2091Z" fill="#555555"/>
</svg>
