<svg xmlns="http://www.w3.org/2000/svg" style="fill: #F2D07F;" viewBox="0 0 127.6 127.6">
  <g>
    <g transform="translate(0,-952.36218)">
      <path d="M63.8,1059.9c3.6,0,5.2-1.6,8.1-4.5l48.4-52.9c0,0,2.1-2.2,2.1-5.4c0-4.9-4-8.9-8.9-8.9h-19v9.3h17.1l-47.8,51.9L16,997.5h17.1v-9.3h-19c-4.9,0-8.9,4-8.9,8.9c0,3.2,2.1,5.4,2.1,5.4l48.4,52.9C58.6,1058.2,60.2,1059.9,63.8,1059.9z"/>
    </g>
    <g>
      <g transform="translate(0,-952.36218)">
        <path d="M35.3,984l0.2,29.7l54.2-40.2c3.6-2.1,8.3-0.8,10.4,2.8c0.7,1.1,1,2.4,1,3.7l0.3,37.2c0,4.2-3.3,7.6-7.5,7.6c-1.3,0-2.6-0.3-3.7-1L35.3,984z M92.1,1013.1l-0.2-29.5l-54.1,40.6c-1.1,0.7-2.4,1-3.7,1c-4.2,0-7.6-3.3-7.6-7.5l-0.3-37.2c0-1.3,0.3-2.6,1-3.7c2-3.7,6.7-5,10.3-2.9L92.1,1013.1z"/>
      </g>
    </g>
  </g>
</svg>
