<svg xmlns="http://www.w3.org/2000/svg" width="150" height="56.48" viewBox="0 0 150 56.48"><path fill="#FCFCFC" d="M50.93 38.59c-1.13-1.2-1.7-2.89-1.7-5.07 0-2.09.28-4.13.84-6.11.55-1.98 1.31-3.74 2.27-5.27.96-1.53 2.09-2.76 3.41-3.67 1.31-.91 2.73-1.37 4.24-1.37 1.82 0 3.29.61 4.4 1.84 1.11 1.22 1.67 2.84 1.67 4.84 0 2.01-.28 4-.84 5.97-.55 1.98-1.31 3.77-2.26 5.34-.96 1.58-2.1 2.86-3.41 3.84-1.32.98-2.71 1.47-4.17 1.47-1.84-.01-3.32-.61-4.45-1.81m.16-25.11c-2.23 1.25-4.14 2.89-5.74 4.94-1.6 2.05-2.84 4.4-3.71 7.04-.87 2.65-1.3 5.37-1.3 8.18 0 1.78.27 3.41.8 4.91.53 1.49 1.3 2.78 2.3 3.87 1 1.09 2.2 1.94 3.6 2.54 1.41.6 2.97.9 4.71.9 2.22 0 4.25-.53 6.07-1.6 1.82-1.07 3.41-2.45 4.74-4.14 0 3.83 2.36 5.74 7.08 5.74 1.02 0 1.97-.09 2.84-.27.87-.18 1.75-.38 2.64-.6l1.34-4.94c-.49.18-.91.3-1.27.37-.36.06-.76.1-1.2.1-1.38 0-2.07-.71-2.07-2.13 0-.71.18-1.7.53-2.97.36-1.27.76-2.73 1.2-4.37l5.08-19.23c-.67.22-1.47.39-2.41.5-.93.12-2 .17-3.2.17h-3.34l-1.74 6.28c-.57-2.27-1.69-4.03-3.34-5.28-1.64-1.24-3.73-1.87-6.27-1.87-2.66-.01-5.11.62-7.34 1.86m77.08 26.27c-.76-.38-1.4-.86-1.94-1.47-.53-.6-.93-1.3-1.2-2.1-.27-.8-.4-1.62-.4-2.47 0-2 .26-4 .77-5.98.51-1.98 1.23-3.76 2.17-5.34.93-1.58 2.04-2.86 3.31-3.84s2.66-1.47 4.17-1.47c1.82 0 3.29.6 4.4 1.8 1.11 1.2 1.69 2.89 1.74 5.07 0 2.09-.27 4.13-.8 6.11-.53 1.99-1.28 3.73-2.24 5.24-.96 1.51-2.07 2.73-3.34 3.63-1.27.91-2.62 1.37-4.04 1.37-.98.02-1.84-.17-2.6-.55m4.84-26.73c-1.67.93-3.15 2.16-4.44 3.67l1.33-4.88c-.8.18-1.91.33-3.34.47-1.42.13-2.96.2-4.61.2h-6.01l-1.34 5.01h3.81c.4 0 .66.15.77.43.11.29.06.81-.17 1.57l-8.28 30.24c-.22.76-.45 1.23-.7 1.44-.25.2-.55.3-.9.3h-2.94l-1.34 5.01h17.63l1.33-5.01h-3.41c-.36 0-.61-.1-.77-.3-.16-.2-.12-.68.1-1.44l2.94-10.95c.58 2.14 1.71 3.85 3.41 5.14 1.69 1.29 3.87 1.93 6.54 1.93 2.71 0 5.15-.6 7.31-1.8 2.16-1.2 4-2.8 5.51-4.81 1.51-2.01 2.67-4.3 3.47-6.91.8-2.61 1.2-5.33 1.2-8.18 0-1.78-.26-3.44-.77-4.97-.51-1.54-1.26-2.87-2.26-4.01-1-1.13-2.23-2.02-3.67-2.64-1.45-.62-3.08-.93-4.91-.93-1.98.01-3.82.48-5.49 1.42m-33.46.13c-1.62 1.16-3.01 2.74-4.17 4.74l1.67-6.08c-.8.18-1.92.33-3.34.47-1.43.13-2.96.2-4.61.2h-6.21l-1.34 5.01h4c.4 0 .66.15.77.43.11.29.06.81-.17 1.57l-7 25.51h8.94l2.87-10.68c.75-2.85 1.51-5.36 2.26-7.54.76-2.18 1.57-4.01 2.44-5.47.87-1.47 1.82-2.58 2.87-3.34 1.05-.75 2.24-1.14 3.57-1.14.49 0 .96.09 1.41.27.44.18.78.43 1 .74-1.15.18-2.1.71-2.83 1.6-.73.89-1.08 1.84-1.04 2.87.04 1.16.47 2.11 1.27 2.87.8.76 1.91 1.13 3.33 1.13.98 0 1.88-.24 2.71-.7.82-.46 1.53-1.09 2.13-1.87.6-.78 1.06-1.67 1.37-2.7.31-1.02.44-2.11.4-3.27-.09-1.87-.73-3.39-1.93-4.58-1.2-1.18-2.85-1.77-4.94-1.77-2 0-3.81.58-5.43 1.73m-81.69-12.68c-1.45.13-2.99.2-4.64.2h-5.81l-1.4 5h3.47c.44 0 .71.15.8.44.09.29.02.81-.2 1.57l-10.08 37.32h8.88c1.24-4.94 2.48-9.16 3.7-12.65 1.22-3.49 2.46-6.35 3.7-8.58 1.25-2.23 2.52-3.85 3.81-4.87s2.63-1.54 4.01-1.54c1.02 0 1.89.3 2.6.9.72.6 1.07 1.48 1.07 2.64 0 .53-.14 1.3-.4 2.3-.27 1-.59 2.1-.97 3.31-.38 1.2-.79 2.47-1.24 3.8-.44 1.34-.86 2.63-1.23 3.88-.38 1.24-.7 2.39-.97 3.44-.27 1.05-.4 1.88-.4 2.5 0 2.04.6 3.51 1.8 4.41 1.2.89 2.89 1.33 5.07 1.33.98 0 1.96-.06 2.94-.2.98-.13 1.91-.36 2.8-.67l1.33-4.94c-.89.31-1.71.47-2.47.47-1.33 0-2-.65-2-1.94 0-.62.28-1.78.84-3.47.55-1.69 1.16-3.54 1.83-5.57.67-2.03 1.28-4.02 1.84-5.97.55-1.96.84-3.49.84-4.61 0-2.4-.84-4.22-2.51-5.47-1.67-1.24-3.7-1.87-6.11-1.87-2.76 0-5.21.69-7.34 2.07-2.14 1.38-4.05 3.38-5.74 6.01l5.48-19.71c-.76.18-1.85.33-3.3.47"/></svg>
