<?xml version="1.0" standalone="no"?>
<!DOCTYPE svg PUBLIC "-//W3C//DTD SVG 20010904//EN"
 "http://www.w3.org/TR/2001/REC-SVG-20010904/DTD/svg10.dtd">
<svg version="1.0" xmlns="http://www.w3.org/2000/svg"
 width="1500.000000pt" height="820.000000pt" viewBox="0 0 1500.000000 820.000000"
 preserveAspectRatio="xMidYMid meet">
<metadata>
Created by potrace 1.16, written by Peter Selinger 2001-2019
</metadata>
<g transform="translate(0.000000,820.000000) scale(0.100000,-0.100000)"
fill="#000000" stroke="none">
<path d="M3805 5963 c-55 -8 -223 -16 -435 -19 l-345 -6 -46 -167 -46 -166
134 -5 c149 -6 158 -10 147 -70 -3 -19 -156 -592 -340 -1272 -184 -680 -334
-1242 -334 -1248 0 -7 97 -10 298 -10 l299 0 13 58 c23 104 158 564 209 715
210 611 424 946 657 1028 66 23 171 25 222 3 83 -34 131 -110 132 -207 0 -79
-35 -211 -145 -547 -118 -359 -169 -535 -185 -633 -15 -89 -9 -190 15 -259 36
-104 149 -185 290 -209 104 -18 328 -6 440 23 l90 23 44 163 c24 90 41 165 39
168 -3 2 -31 -2 -64 -11 -100 -26 -173 -13 -208 36 -37 54 -24 115 120 554
204 619 240 791 199 948 -22 83 -50 133 -113 199 -66 70 -159 119 -268 144
-118 26 -341 16 -454 -21 -105 -34 -164 -63 -257 -127 -76 -53 -216 -191 -272
-270 -19 -27 -35 -47 -37 -45 -1 1 65 243 147 537 82 294 160 574 173 623 l24
87 -26 -1 c-15 -1 -67 -8 -117 -16z"/>
<path d="M9453 5219 c-71 -12 -163 -50 -238 -99 -68 -45 -186 -161 -230 -228
-15 -23 -29 -41 -31 -40 -1 2 17 75 42 163 24 88 44 166 44 174 0 10 -9 12
-32 7 -120 -22 -235 -29 -552 -35 l-359 -6 -43 -160 c-24 -88 -44 -163 -44
-167 0 -5 63 -8 140 -8 128 0 142 -2 161 -21 16 -16 19 -28 14 -52 -5 -24
-443 -1630 -471 -1730 -5 -16 12 -17 297 -15 l303 3 116 430 c138 511 175 636
242 815 97 262 208 443 321 526 119 88 273 108 364 48 l25 -16 -57 -24 c-70
-28 -127 -81 -163 -149 -20 -39 -26 -65 -26 -120 -1 -86 16 -136 62 -187 45
-50 92 -74 176 -89 175 -33 345 59 438 237 111 212 95 469 -37 612 -106 115
-274 162 -462 131z"/>
<path d="M6217 5194 c-474 -105 -833 -518 -957 -1100 -27 -127 -38 -400 -21
-510 51 -311 248 -543 526 -619 88 -24 293 -31 380 -12 176 38 331 124 471
264 l81 81 6 -48 c19 -157 137 -266 327 -302 81 -15 288 -4 407 22 l101 22 16
62 c9 33 29 110 45 170 l30 108 -27 -6 c-109 -26 -151 -29 -192 -17 -55 16
-80 57 -80 133 0 63 -6 40 264 1058 101 382 182 697 181 698 -2 2 -37 -4 -77
-14 -55 -13 -130 -18 -298 -22 l-226 -4 -54 -198 -54 -199 -21 58 c-32 87 -72
149 -139 217 -69 68 -140 112 -236 144 -86 30 -347 38 -453 14z m485 -392
c118 -58 196 -172 219 -322 32 -208 -58 -577 -198 -813 -65 -111 -215 -263
-301 -305 -123 -60 -252 -66 -360 -17 -80 37 -119 69 -162 135 -56 88 -74 162
-73 305 3 406 186 808 445 976 93 60 165 80 274 76 79 -2 100 -7 156 -35z"/>
<path d="M11545 5190 c-137 -36 -242 -94 -370 -205 -41 -36 -75 -63 -75 -59 0
4 16 65 36 136 19 72 34 132 31 134 -2 2 -53 -3 -113 -12 -77 -12 -213 -19
-463 -23 l-354 -6 -43 -160 c-24 -88 -44 -163 -44 -167 0 -5 59 -8 131 -8 72
0 139 -5 150 -10 13 -8 19 -21 19 -47 0 -31 -542 -2034 -571 -2111 -6 -15 -20
-37 -31 -49 -20 -21 -30 -23 -139 -23 l-117 0 -16 -62 c-8 -35 -29 -111 -45
-171 l-29 -107 591 2 590 3 43 160 c24 88 43 163 44 167 0 4 -62 9 -137 10
l-138 3 -3 27 c-4 31 187 758 199 758 4 0 10 -12 14 -27 27 -110 162 -264 285
-325 104 -52 175 -69 318 -75 195 -9 355 26 525 115 361 189 610 610 666 1124
23 204 10 368 -40 523 -39 123 -89 205 -184 301 -67 68 -95 89 -175 127 -52
25 -127 52 -167 61 -101 22 -297 21 -388 -4z m127 -382 c107 -49 175 -133 214
-263 25 -79 24 -282 -1 -415 -59 -318 -212 -594 -402 -724 -92 -63 -167 -87
-263 -87 -203 0 -352 136 -391 354 -23 125 10 373 73 561 102 304 284 523 493
593 67 22 209 12 277 -19z"/>
</g>
</svg>
