<svg xmlns="http://www.w3.org/2000/svg" viewBox="0 0 1068.587 218.402" fill="#E7DACB"><path d="M110.401 1.2c25.2 0 42.6 17.4 42.6 42.6v54.6c0 25.201-17.4 42.601-42.6 42.601h-67.2v76.202H0V1.2Zm24 46.8c0-18.6-10.8-29.4-29.4-29.4h-86.4v181.202h6v-76.2H105c18.6 0 29.4-10.8 29.4-29.401Zm-29.4-23.4c15 0 23.4 8.4 23.4 23.4v46.2c0 15.001-8.4 23.401-23.4 23.401h-80.4v-93Zm-5.4 75.601c6.6 0 10.2-3.6 10.2-10.2v-37.8c0-6.6-3.6-10.2-10.2-10.2h-56.4v58.2ZM200.098 217.203h-44.7L224.997 1.2h50.4L345 217.203h-46.501l-14.1-48.602h-69.9Zm119.401-17.4L263.999 18.6h-27.6l-56.401 181.202h5.7l15-48.6H299.1l14.699 48.6ZM239.999 24.6l-37.501 120.602h94.8L260.399 24.6Zm9.9 24 22.8 79.201h-46.2ZM486.295 217.203l-34.8-80.101h-34.8v80.1h-43.2V1.2h110.1c25.2 0 42.6 17.4 42.6 42.6v50.701c0 20.4-11.4 35.7-29.4 40.8l36 81.902Zm18.9-17.4L470.395 120h7.8c18.6 0 29.4-10.8 29.4-29.4v-42.6c0-18.6-10.8-29.4-29.4-29.4h-86.1v181.201h6v-79.801h66l34.8 79.801Zm-3.6-109.202c0 15-8.4 23.4-23.4 23.4h-80.1v-89.4h80.1c15 0 23.4 8.4 23.4 23.4Zm-28.8 6.3c6.6 0 10.2-3.6 10.2-10.2V52.2c0-6.6-3.6-10.2-10.2-10.2h-56.1v54.9ZM673.793 51c0-6.6-3.6-10.2-10.2-10.2h-46.8c-6.6 0-10.2 3.6-10.2 10.2v116.402c0 6.6 3.6 10.2 10.2 10.2h46.8c6.6 0 10.2-3.6 10.2-10.2v-26.4h43.201v34.8c0 25.2-17.4 42.6-42.6 42.6h-68.402c-25.2 0-42.6-17.4-42.6-42.6V42.601c0-25.201 17.4-42.601 42.6-42.601h68.402c25.2 0 42.6 17.4 42.6 42.6v34.8h-43.201Zm-4.8-27.6c15 0 23.4 8.4 23.4 23.4v13.8h6V46.8c0-18.6-10.8-29.4-29.4-29.4h-57.6c-18.6 0-29.4 10.8-29.4 29.4v124.801c0 18.6 10.8 29.4 29.4 29.4h57.6c18.6 0 29.4-10.8 29.4-29.4v-13.2h-6v13.2c0 15.001-8.4 23.4-23.4 23.4h-57.6c-15 0-23.4-8.399-23.4-23.4v-124.8c0-15 8.4-23.4 23.4-23.4ZM896.69 1.2V42h-98.102v44.4h79.5v40.801h-79.5v49.2h98.101v40.802H755.388V1.2Zm-18.601 198.602v-6h-98.1v-84h79.5V103.8h-79.5V24.6h98.1v-6h-104.1v181.201ZM977.985 1.2v175.202h90.602v40.8H934.785V1.2Zm72.001 198.602v-6h-90.6V18.6h-6v181.202Z"/></svg>
